<svg xmlns="http://www.w3.org/2000/svg" version="1.1" xmlns:xlink="http://www.w3.org/1999/xlink" xmlns:svgjs="http://svgjs.dev/svgjs" width="1500" height="644" viewBox="0 0 1500 644"><g transform="matrix(1,0,0,1,-0.9580792682925221,-0.9111914893615563)"><svg viewBox="0 0 328 141" data-background-color="#ffffff" preserveAspectRatio="xMidYMid meet" height="644" width="1500" xmlns="http://www.w3.org/2000/svg" xmlns:xlink="http://www.w3.org/1999/xlink"><g id="tight-bounds" transform="matrix(1,0,0,1,0.20949999999996294,0.19949999999997203)"><svg viewBox="0 0 327.5809664642083 140.60052000000002" height="140.60052000000002" width="327.5809664642083"><g><svg viewBox="0 0 327.5809664642083 140.60052000000002" height="140.60052000000002" width="327.5809664642083"><g><svg viewBox="0 0 327.5809664642083 140.60052000000002" height="140.60052000000002" width="327.5809664642083"><g><path d="M0 140.601v-140.601h327.581v140.601z" fill="#22c55e" stroke="transparent" stroke-width="0" rx="0%" data-fill-palette-color="tertiary"></path><path d="M3.283 137.317v-134.034h321.015v134.034z" fill="#ffffff" stroke="transparent" stroke-width="0" rx="0%" data-fill-palette-color="quaternary"></path><path d="M9.85 130.751v-120.901h307.881v120.901z" fill="#22c55e" stroke="transparent" stroke-width="0" data-fill-palette-color="tertiary"></path></g><g transform="matrix(1,0,0,1,19.69974,19.69974)" id="textblocktransform"><svg viewBox="0 0 288.1814864642083 101.20104000000002" height="101.20104000000002" width="288.1814864642083" id="textblock"><g><svg viewBox="0 0 288.1814864642083 101.20104000000002" height="101.20104000000002" width="288.1814864642083"><g transform="matrix(1,0,0,1,0,0)"><svg width="288.1814864642083" viewBox="1 -35.01 128.18 45.019999999999996" height="101.20104000000002" data-palette-color="#ffffff"><path d="M20.85-32.01L12.5-32.01 12.5 0 9.35 0 9.35-32.01 1-32.01 1-35.01 20.85-35.01 20.85-32.01ZM39.55-6.86L39.55-6.86Q39.55-5.35 38.97-4 38.4-2.66 37.4-1.66 36.4-0.66 35.06-0.09 33.71 0.49 32.2 0.49L32.2 0.49 30.2 0.49Q28.68 0.49 27.34-0.09 26-0.66 25-1.66 24-2.66 23.42-4 22.85-5.35 22.85-6.86L22.85-6.86 22.85-18.14Q22.85-19.65 23.42-21 24-22.34 25-23.34 26-24.34 27.34-24.91 28.68-25.49 30.2-25.49L30.2-25.49 32.2-25.49Q33.71-25.49 35.06-24.91 36.4-24.34 37.4-23.34 38.4-22.34 38.97-21 39.55-19.65 39.55-18.14L39.55-18.14 39.55-6.86ZM36.55-6.69L36.55-18.31Q36.55-19.21 36.2-20.01 35.86-20.8 35.28-21.39 34.69-21.97 33.9-22.31 33.1-22.66 32.2-22.66L32.2-22.66 30.2-22.66Q29.29-22.66 28.5-22.31 27.71-21.97 27.12-21.39 26.54-20.8 26.19-20.01 25.85-19.21 25.85-18.31L25.85-18.31 25.85-6.69Q25.85-5.79 26.19-4.99 26.54-4.2 27.12-3.61 27.71-3.03 28.5-2.69 29.29-2.34 30.2-2.34L30.2-2.34 32.2-2.34Q33.1-2.34 33.9-2.69 34.69-3.03 35.28-3.61 35.86-4.2 36.2-4.99 36.55-5.79 36.55-6.69L36.55-6.69ZM62.25-6.86L62.25-6.86Q62.25-5.35 61.68-4 61.1-2.66 60.1-1.66 59.1-0.66 57.76-0.09 56.42 0.49 54.9 0.49L54.9 0.49 54.15 0.49Q52.46 0.49 51.02-0.2 49.58-0.88 48.55-2.1L48.55-2.1 48.55 10.01 45.55 10.01 45.55-25 46.55-25 48.19-22.46Q49.21-23.85 50.76-24.67 52.31-25.49 54.15-25.49L54.15-25.49 54.9-25.49Q56.42-25.49 57.76-24.91 59.1-24.34 60.1-23.34 61.1-22.34 61.68-21 62.25-19.65 62.25-18.14L62.25-18.14 62.25-6.86ZM59.25-6.69L59.25-18.31Q59.25-19.21 58.91-20.01 58.56-20.8 57.98-21.39 57.39-21.97 56.6-22.31 55.81-22.66 54.9-22.66L54.9-22.66 52.9-22.66Q52-22.66 51.2-22.31 50.41-21.97 49.82-21.39 49.24-20.8 48.9-20.01 48.55-19.21 48.55-18.31L48.55-18.31 48.55-6.69Q48.55-5.79 48.9-4.99 49.24-4.2 49.82-3.61 50.41-3.03 51.2-2.69 52-2.34 52.9-2.34L52.9-2.34 54.9-2.34Q55.81-2.34 56.6-2.69 57.39-3.03 57.98-3.61 58.56-4.2 58.91-4.99 59.25-5.79 59.25-6.69L59.25-6.69ZM72.5-31.01L69.01-31.01 69.01-35.01 72.5-35.01 72.5-31.01ZM72.26 0L69.26 0 69.26-25 72.26-25 72.26 0ZM95.96-6.86L95.96-6.86Q95.96-5.35 95.39-4 94.81-2.66 93.81-1.66 92.81-0.66 91.47-0.09 90.13 0.49 88.61 0.49L88.61 0.49 86.61 0.49Q85.1 0.49 83.75-0.09 82.41-0.66 81.41-1.66 80.41-2.66 79.84-4 79.26-5.35 79.26-6.86L79.26-6.86 79.26-18.14Q79.26-19.65 79.84-21 80.41-22.34 81.41-23.34 82.41-24.34 83.75-24.91 85.1-25.49 86.61-25.49L86.61-25.49 88.61-25.49Q90.13-25.49 91.47-24.91 92.81-24.34 93.81-23.34 94.81-22.34 95.39-21 95.96-19.65 95.96-18.14L95.96-18.14 95.96-17.14 92.96-16.65 92.96-18.31Q92.96-19.21 92.62-20.01 92.28-20.8 91.69-21.39 91.1-21.97 90.31-22.31 89.52-22.66 88.61-22.66L88.61-22.66 86.61-22.66Q85.71-22.66 84.91-22.31 84.12-21.97 83.53-21.39 82.95-20.8 82.61-20.01 82.27-19.21 82.27-18.31L82.27-18.31 82.27-6.69Q82.27-5.79 82.61-4.99 82.95-4.2 83.53-3.61 84.12-3.03 84.91-2.69 85.71-2.34 86.61-2.34L86.61-2.34 88.61-2.34Q89.52-2.34 90.31-2.69 91.1-3.03 91.69-3.61 92.28-4.2 92.62-4.99 92.96-5.79 92.96-6.69L92.96-6.69 92.96-8.35 95.96-7.86 95.96-6.86ZM105.48 0L102.48 0 102.48-35.01 105.48-35.01 105.48 0ZM129.18-25L116.54 10.01 113.63 10.01 118.08-2.15 109.97-25 112.97-25 119.49-6.05 119.59-4.76 119.69-6.05 126.18-25 129.18-25Z" opacity="1" transform="matrix(1,0,0,1,0,0)" fill="#ffffff" class="wordmark-text-0" data-fill-palette-color="quaternary" id="text-0"></path></svg></g></svg></g></svg></g></svg></g><g></g></svg></g><defs></defs></svg><rect width="327.5809664642083" height="140.60052000000002" fill="none" stroke="none" visibility="hidden"></rect></g></svg></g></svg>